<svg width="112" height="112" viewBox="0 0 112 112" fill="none" xmlns="http://www.w3.org/2000/svg">
<path d="M84.8612 44.2848L94.139 53.5626H67.9648C65.2374 53.5626 63.0264 55.7736 63.0264 58.5011C63.0264 61.2285 65.2374 63.4395 67.9648 63.4395H94.1268L85.1551 72.4112C83.2266 74.3398 83.2266 77.4667 85.1551 79.3952C87.0837 81.3238 90.2106 81.3238 92.1392 79.3952L109.183 62.3282C110.294 61.323 111 60.0446 111 58.5011C111 56.898 110.294 55.6791 109.052 54.5711L91.8452 37.3008C89.9166 35.3722 86.7898 35.3722 84.8612 37.3008C82.9326 39.2294 82.9326 42.3563 84.8612 44.2848Z" fill="white"/>
<path d="M40.8027 7C46.4163 7.00017 51.8002 9.23023 55.7696 13.1993C59.7391 17.1684 61.9689 22.5517 61.9689 28.1648C61.9689 33.778 59.7391 39.1612 55.7696 43.1304C51.8002 47.0994 46.4163 49.3295 40.8027 49.3296C35.1888 49.3296 29.804 47.0995 25.8344 43.1304C21.865 39.1612 19.6351 33.7779 19.6351 28.1648C19.6351 22.5517 21.865 17.1684 25.8344 13.1993C29.804 9.23008 35.1888 7 40.8027 7Z" fill="white"/>
<path d="M52.6047 58.1457C53.7922 58.5249 54.5598 59.6524 54.5598 60.8989V62.0285C54.5598 67.4832 58.9821 71.9051 64.4367 71.9054H70.3982C71.345 71.9054 72.2425 72.3482 72.7789 73.1283C77.0788 79.382 79.4836 86.8083 79.6035 94.5047C79.6157 95.1901 79.4282 95.8643 79.0633 96.4448C78.6982 97.0253 78.1709 97.487 77.5476 97.7731C66.0197 103.058 53.4846 105.786 40.8027 105.769C27.698 105.769 15.2467 102.909 4.05641 97.7731C3.43309 97.487 2.90578 97.0253 2.54071 96.4448C2.17588 95.8643 1.98833 95.1901 2.00056 94.5047C2.15919 84.3196 6.317 74.6054 13.5764 67.4589C20.8359 60.3124 30.6153 56.306 40.8027 56.306C44.8451 56.3061 48.823 56.9379 52.6047 58.1457Z" fill="white"/>
</svg>
